<?xml version="1.0" encoding="utf-8"?>
<svg version="1.1" viewBox="0 0 284 284" enable-background="new 0 0 284 284" xmlns="http://www.w3.org/2000/svg">
  <g>
    <path d="m274,22.631h-264c-5.523,0-10,4.477-10,10v174c0,5.523 4.477,10 10,10h98.25v14.739h-2.498c-8.284,0-15,6.716-15,15 0,8.284 6.716,15 15,15h72.495c8.284,0 15-6.716 15-15 0-8.284-6.716-15-15-15h-2.498v-14.74h98.251c5.522,0 10-4.477 10-10v-174c0-5.522-4.478-9.999-10-9.999zm-10,157.333h-244v-137.333h244v137.333z" style="fill: rgb(236, 236, 236);"/>
    <path d="m38.883,159.278c0.555,4.044 4.01,7.056 8.091,7.056h69.385c4.081,0 7.536-3.013 8.091-7.056l2.627-19.139c0.551-4.014-1.925-7.825-5.816-8.954l-25.773-7.474-.681-8.471c7.832-5.742 13.104-16.45 13.104-28.721 0-18.327-11.75-33.184-26.244-33.184-14.494,0-26.244,14.857-26.244,33.184 0,12.272 5.272,22.979 13.104,28.721l-.681,8.471-25.773,7.474c-3.892,1.129-6.367,4.94-5.816,8.954l2.626,19.139z" style="fill: rgb(236, 236, 236);"/>
    <path d="m167.139,78.583h31.5c5.523,0 10-4.478 10-10 0-5.523-4.477-10-10-10h-31.5c-5.522,0-10,4.478-10,10 0,5.522 4.477,10 10,10z" style="fill: rgb(236, 236, 236);"/>
    <path d="m167.139,119.834h66.5c5.523,0 10-4.478 10-10 0-5.522-4.477-10-10-10h-66.5c-5.522,0-10,4.478-10,10 0,5.522 4.477,10 10,10z" style="fill: rgb(236, 236, 236);"/>
    <path d="m167.139,161.085h66.5c5.523,0 10-4.477 10-10 0-5.522-4.477-10-10-10h-66.5c-5.522,0-10,4.478-10,10 0,5.522 4.477,10 10,10z" style="fill: rgb(236, 236, 236);"/>
  </g>
</svg>